<?xml version="1.0" encoding="UTF-8" standalone="no"?>
<!DOCTYPE svg PUBLIC "-//W3C//DTD SVG 1.1//EN" "http://www.w3.org/Graphics/SVG/1.1/DTD/svg11.dtd">
<svg version="1.1" xmlns="http://www.w3.org/2000/svg" xmlns:xlink="http://www.w3.org/1999/xlink" preserveAspectRatio="xMidYMid meet" viewBox="0 0 640 640" width="640" height="640"><defs><path d="M261.1 328.87C170.37 386.66 145.62 242.59 145.57 188.48C145.51 108.97 180.18 20.52 202.28 21.98C224.43 23.45 256.76 50.42 276.75 131.18C295.54 207.22 278.64 295.45 261.1 328.87Z" id="a1mMPln9Ho"></path><path d="M261.1 328.87C170.37 386.66 145.62 242.59 145.57 188.48C145.51 108.97 180.18 20.52 202.28 21.98C224.43 23.45 256.76 50.42 276.75 131.18C295.54 207.22 278.64 295.45 261.1 328.87Z" id="ffEh3EANF"></path><path d="M221.23 449.98C208.94 458.43 147.79 452.41 120.98 408.7C94.11 364.94 35.18 330.33 45.04 321.88C54.9 313.49 104.46 351.51 131.32 395.22C158.19 438.98 233.53 441.53 221.23 449.98Z" id="c17GwVHXa"></path><path d="M43.94 358.7C30.35 358.7 19.26 345.04 19.26 328.27C19.26 311.49 30.35 297.83 43.94 297.83C57.53 297.83 68.62 311.49 68.62 328.27C68.62 345.04 57.53 358.7 43.94 358.7Z" id="d8Ox3jRYj"></path><path d="M91.17 270.66C77.55 270.66 66.46 257.76 66.46 241.9C66.46 226.05 77.55 213.15 91.17 213.15C104.78 213.15 115.81 226.05 115.81 241.9C115.81 257.76 104.78 270.66 91.17 270.66Z" id="c1Yj6g2nsM"></path><path d="M534.45 259.65C508.73 217.67 320.51 151.32 213.54 266.42C59.18 428.91 157 548.44 183.75 580.56C210.45 612.73 361.13 663.16 472.17 535.88C583.2 408.6 560.18 301.62 534.45 259.65Z" id="c2L1qUkqT"></path><path d="M534.45 259.65C508.73 217.67 320.51 151.32 213.54 266.42C59.18 428.91 157 548.44 183.75 580.56C210.45 612.73 361.13 663.16 472.17 535.88C583.2 408.6 560.18 301.62 534.45 259.65Z" id="bq898d2yJ"></path><path d="M452.34 554.35C432.52 572.38 399.54 590.42 353.5 608.51C313.8 526.34 243.06 447.81 141.34 372.9C156.4 344.9 183.48 306.55 222.59 257.81C341.09 338.13 417.73 436.98 452.34 554.35Z" id="b2H6kr1NE"></path><path d="M452.34 554.35C432.52 572.38 399.54 590.42 353.5 608.51C313.8 526.34 243.06 447.81 141.34 372.9C156.4 344.9 183.48 306.55 222.59 257.81C341.09 338.13 417.73 436.98 452.34 554.35Z" id="d58675dngz"></path><path d="M562.24 369.49C558.34 401.99 545.23 433.56 522.97 464.27C462.8 327.08 398.78 242.64 330.91 211.07C356.8 188.48 392.93 186.26 439.24 204.29C485.55 222.33 526.55 277.41 562.24 369.49Z" id="fdPjkNl9z"></path><path d="M562.24 369.49C558.34 401.99 545.23 433.56 522.97 464.27C462.8 327.08 398.78 242.64 330.91 211.07C356.8 188.48 392.93 186.26 439.24 204.29C485.55 222.33 526.55 277.41 562.24 369.49Z" id="atFGHxy0"></path><path d="M537.65 257.81C511.92 215.83 323.71 149.48 216.74 264.58C62.37 427.07 160.25 546.55 186.95 578.72C213.7 610.84 364.33 661.32 475.36 534.04C586.4 406.75 563.38 299.78 537.65 257.81Z" id="a3qsDgv7FY"></path><path d="M537.65 257.81C511.92 215.83 323.71 149.48 216.74 264.58C62.37 427.07 158.17 545.59 186.95 578.72C215.72 611.85 364.33 661.32 475.36 534.04C586.4 406.75 563.38 299.78 537.65 257.81Z" id="b2jkH3j5D"></path><path d="M93.14 240.04C105.16 230.67 102.4 271.29 129.26 315.06C156.08 358.77 211.1 378.7 199.95 387.96C188.74 397.22 144.11 373.23 117.29 329.46C90.43 285.76 81.11 249.41 93.14 240.04Z" id="cp1Jr8qzx"></path><path d="M93.14 240.04C105.16 230.67 102.4 271.29 129.26 315.06C156.08 358.77 211.1 378.7 199.95 387.96C188.74 397.22 144.11 373.23 117.29 329.46C90.43 285.76 81.11 249.41 93.14 240.04Z" id="h4QsBRPtaI"></path><path d="M299.12 451.65C308.7 434.59 304.53 410.11 277.89 422.3C251.24 434.49 235.26 483.61 239.54 490.71C242.41 495.42 251.83 473.59 268.08 464.33C276.42 459.62 295.87 457.45 299.12 451.65Z" id="g46wNuqqTW"></path><path d="M299.12 451.65C308.7 434.59 304.53 410.11 277.89 422.3C251.24 434.49 235.26 483.61 239.54 490.71C242.41 495.42 251.83 473.59 268.08 464.33C276.42 459.62 295.87 457.45 299.12 451.65Z" id="a15j33fca5"></path><path d="M230.6 597.24C266.24 615.77 282.27 538.31 258.98 554.4C235.75 570.43 198.65 586.79 198.92 589.07C199.24 591.99 210.35 586.68 230.6 597.24Z" id="fY5CBWHMu"></path><path d="M233.11 594.22C268.75 612.74 284.78 535.29 261.49 551.37C238.25 567.4 201.15 583.76 201.42 586.04C201.75 588.96 212.85 583.65 233.11 594.22Z" id="aKhUeqx1b"></path><path d="M606.71 214.48C604.16 209.44 577.35 218.7 526.28 242.21C528.1 244.71 537.22 257.22 553.63 279.74C590.75 239.55 608.44 217.8 606.71 214.48Z" id="b1PWVMhZGK"></path><path d="M606.71 214.48C604.16 209.44 577.35 218.7 526.28 242.21C528.1 244.71 537.22 257.22 553.63 279.74C590.75 239.55 608.44 217.8 606.71 214.48Z" id="fGOvIZtAe"></path><path d="M316.83 313.97C328.31 349.94 343.75 305.09 357.99 307.47C372.24 309.8 368.61 327.95 374.24 328.87C386.21 330.76 394.55 308.56 408.09 308.12C418.82 307.75 420.66 355.14 444.65 318.04C468.65 280.93 490.1 246.7 499.63 193.46C513.66 115.2 488.47 41.48 461.71 36.82C438.59 32.82 368.66 90.39 334.81 166.38C302.96 237.98 305.4 278.01 316.83 313.97Z" id="aZnuPTdPu"></path><path d="M316.83 313.97C328.31 349.94 343.75 305.09 357.99 307.47C372.24 309.8 368.61 327.95 374.24 328.87C386.21 330.76 394.55 308.56 408.09 308.12C418.82 307.75 420.66 355.14 444.65 318.04C468.65 280.93 490.1 246.7 499.63 193.46C513.66 115.2 488.47 41.48 461.71 36.82C438.59 32.82 368.66 90.39 334.81 166.38C302.96 237.98 305.4 278.01 316.83 313.97Z" id="c6qNGJUim7"></path></defs><g><g><g><use xlink:href="#a1mMPln9Ho" opacity="1" fill="#fff3c2" fill-opacity="1"></use><g><use xlink:href="#a1mMPln9Ho" opacity="1" fill-opacity="0" stroke="#000000" stroke-width="1" stroke-opacity="0"></use></g></g><g><use xlink:href="#ffEh3EANF" opacity="1" fill="#fff3c2" fill-opacity="1"></use><g><use xlink:href="#ffEh3EANF" opacity="1" fill-opacity="0" stroke="#32210b" stroke-width="30" stroke-opacity="1"></use></g></g><g><use xlink:href="#c17GwVHXa" opacity="1" fill="#32210b" fill-opacity="1"></use><g><use xlink:href="#c17GwVHXa" opacity="1" fill-opacity="0" stroke="#32210b" stroke-width="10" stroke-opacity="1"></use></g></g><g><use xlink:href="#d8Ox3jRYj" opacity="1" fill="#32210b" fill-opacity="1"></use><g><use xlink:href="#d8Ox3jRYj" opacity="1" fill-opacity="0" stroke="#000000" stroke-width="1" stroke-opacity="0"></use></g></g><g><use xlink:href="#c1Yj6g2nsM" opacity="1" fill="#32210b" fill-opacity="1"></use><g><use xlink:href="#c1Yj6g2nsM" opacity="1" fill-opacity="0" stroke="#000000" stroke-width="1" stroke-opacity="0"></use></g></g><g><use xlink:href="#c2L1qUkqT" opacity="1" fill="#ffcc00" fill-opacity="1"></use><g><use xlink:href="#c2L1qUkqT" opacity="1" fill-opacity="0" stroke="#000000" stroke-width="1" stroke-opacity="0"></use></g></g><g><use xlink:href="#bq898d2yJ" opacity="1" fill="#000000" fill-opacity="0"></use><g><use xlink:href="#bq898d2yJ" opacity="1" fill-opacity="0" stroke="#32210b" stroke-width="2" stroke-opacity="1"></use></g></g><g><use xlink:href="#b2H6kr1NE" opacity="1" fill="#e98f1c" fill-opacity="1"></use><g><use xlink:href="#b2H6kr1NE" opacity="1" fill-opacity="0" stroke="#000000" stroke-width="1" stroke-opacity="0"></use></g></g><g><use xlink:href="#d58675dngz" opacity="1" fill="#000000" fill-opacity="0"></use><g><use xlink:href="#d58675dngz" opacity="1" fill-opacity="0" stroke="#32210b" stroke-width="0" stroke-opacity="1"></use></g></g><g><use xlink:href="#fdPjkNl9z" opacity="1" fill="#e98f1c" fill-opacity="1"></use><g><use xlink:href="#fdPjkNl9z" opacity="1" fill-opacity="0" stroke="#000000" stroke-width="1" stroke-opacity="0"></use></g></g><g><use xlink:href="#atFGHxy0" opacity="1" fill="#000000" fill-opacity="0"></use><g><use xlink:href="#atFGHxy0" opacity="1" fill-opacity="0" stroke="#32210b" stroke-width="0" stroke-opacity="1"></use></g></g><g><use xlink:href="#a3qsDgv7FY" opacity="1" fill="#ffcc00" fill-opacity="0"></use><g><use xlink:href="#a3qsDgv7FY" opacity="1" fill-opacity="0" stroke="#000000" stroke-width="1" stroke-opacity="0"></use></g></g><g><use xlink:href="#b2jkH3j5D" opacity="1" fill="#000000" fill-opacity="0"></use><g><use xlink:href="#b2jkH3j5D" opacity="1" fill-opacity="0" stroke="#32210b" stroke-width="30" stroke-opacity="1"></use></g></g><g><use xlink:href="#cp1Jr8qzx" opacity="1" fill="#32210b" fill-opacity="1"></use><g><use xlink:href="#cp1Jr8qzx" opacity="1" fill-opacity="0" stroke="#000000" stroke-width="1" stroke-opacity="0"></use></g></g><g><use xlink:href="#h4QsBRPtaI" opacity="1" fill="#000000" fill-opacity="0"></use><g><use xlink:href="#h4QsBRPtaI" opacity="1" fill-opacity="0" stroke="#32210b" stroke-width="10" stroke-opacity="1"></use></g></g><g><use xlink:href="#g46wNuqqTW" opacity="1" fill="#32210b" fill-opacity="1"></use><g><use xlink:href="#g46wNuqqTW" opacity="1" fill-opacity="0" stroke="#000000" stroke-width="1" stroke-opacity="0"></use></g></g><g><use xlink:href="#a15j33fca5" opacity="1" fill="#000000" fill-opacity="0"></use><g><use xlink:href="#a15j33fca5" opacity="1" fill-opacity="0" stroke="#32210b" stroke-width="30" stroke-opacity="1"></use></g></g><g><use xlink:href="#fY5CBWHMu" opacity="1" fill="#32210b" fill-opacity="1"></use><g><use xlink:href="#fY5CBWHMu" opacity="1" fill-opacity="0" stroke="#000000" stroke-width="1" stroke-opacity="0"></use></g></g><g><use xlink:href="#aKhUeqx1b" opacity="1" fill="#000000" fill-opacity="0"></use><g><use xlink:href="#aKhUeqx1b" opacity="1" fill-opacity="0" stroke="#32210b" stroke-width="30" stroke-opacity="1"></use></g></g><g><use xlink:href="#b1PWVMhZGK" opacity="1" fill="#32210b" fill-opacity="1"></use><g><use xlink:href="#b1PWVMhZGK" opacity="1" fill-opacity="0" stroke="#000000" stroke-width="1" stroke-opacity="0"></use></g></g><g><use xlink:href="#fGOvIZtAe" opacity="1" fill="#000000" fill-opacity="0"></use><g><use xlink:href="#fGOvIZtAe" opacity="1" fill-opacity="0" stroke="#32210b" stroke-width="30" stroke-opacity="1"></use></g></g><g><use xlink:href="#aZnuPTdPu" opacity="1" fill="#fff3c2" fill-opacity="1"></use><g><use xlink:href="#aZnuPTdPu" opacity="1" fill-opacity="0" stroke="#000000" stroke-width="1" stroke-opacity="0"></use></g></g><g><use xlink:href="#c6qNGJUim7" opacity="1" fill="#fff3c2" fill-opacity="1"></use><g><use xlink:href="#c6qNGJUim7" opacity="1" fill-opacity="0" stroke="#32210b" stroke-width="30" stroke-opacity="1"></use></g></g></g></g></svg>