<?xml version="1.0" encoding="UTF-8" standalone="no"?>
<!DOCTYPE svg PUBLIC "-//W3C//DTD SVG 1.1//EN" "http://www.w3.org/Graphics/SVG/1.1/DTD/svg11.dtd">
<svg version="1.1" xmlns="http://www.w3.org/2000/svg" xmlns:xlink="http://www.w3.org/1999/xlink" preserveAspectRatio="xMidYMid meet" viewBox="0 0 350 350" width="350" height="350"><defs><path d="M311.02 195.21C317.02 183.31 317 169.27 310.97 157.39C299.13 134.09 273.22 83.08 261.39 59.77C255.5 48.18 243.6 40.88 230.6 40.88C203.29 40.88 142.55 40.88 115.23 40.88C102.22 40.88 90.29 48.15 84.33 59.71C72.3 83.03 45.94 134.14 33.91 157.45C27.82 169.28 27.79 183.31 33.85 195.15C45.89 218.67 72.35 270.37 84.39 293.89C90.31 305.47 102.23 312.75 115.23 312.75C142.54 312.75 203.27 312.75 230.58 312.75C243.58 312.75 255.46 305.43 261.31 293.83C273.16 270.32 299.17 218.72 311.02 195.21Z" id="aoC03b9Ok"></path></defs><g><g><g><use xlink:href="#aoC03b9Ok" opacity="1" fill="#1ce9e3" fill-opacity="1"></use><g><use xlink:href="#aoC03b9Ok" opacity="1" fill-opacity="0" stroke="#32210b" stroke-width="50" stroke-opacity="1"></use></g></g></g></g></svg>