<?xml version="1.0" encoding="UTF-8" standalone="no"?>
<!DOCTYPE svg PUBLIC "-//W3C//DTD SVG 1.1//EN" "http://www.w3.org/Graphics/SVG/1.1/DTD/svg11.dtd">
<svg version="1.1" xmlns="http://www.w3.org/2000/svg" xmlns:xlink="http://www.w3.org/1999/xlink" preserveAspectRatio="xMidYMid meet" viewBox="0 0 350 350" width="350" height="350"><defs><path d="M328.12 206.23C334.82 193.13 334.79 177.61 328.06 164.53C315 139.18 286.55 83.93 273.49 58.57C266.9 45.78 253.72 37.74 239.33 37.74C209.13 37.74 141.98 37.74 111.78 37.74C97.38 37.74 84.17 45.74 77.49 58.5C64.22 83.88 35.27 139.23 22 164.6C15.19 177.61 15.17 193.13 21.93 206.16C35.21 231.75 64.27 287.74 77.56 313.34C84.19 326.11 97.39 334.13 111.78 334.13C141.97 334.13 209.11 334.13 239.31 334.13C253.69 334.13 266.85 326.08 273.4 313.27C286.48 287.69 315.04 231.81 328.12 206.23Z" id="a5lfzqRwZB"></path><path d="M290.19 201.23C295.18 191.34 295.16 179.67 290.15 169.8C280.31 150.43 258.78 108.03 248.95 88.67C244.05 79.03 234.16 72.96 223.36 72.96C200.66 72.96 150.18 72.96 127.48 72.96C116.66 72.96 106.75 79 101.79 88.61C91.8 107.99 69.89 150.47 59.89 169.85C54.83 179.67 54.81 191.34 59.84 201.18C69.85 220.73 91.84 263.69 101.84 283.23C106.77 292.86 116.67 298.91 127.48 298.91C150.17 298.91 200.65 298.91 223.34 298.91C234.14 298.91 244.02 292.83 248.88 283.19C258.73 263.65 280.35 220.76 290.19 201.23Z" id="h1u1Pcz7x6"></path></defs><g><g><g><use xlink:href="#a5lfzqRwZB" opacity="1" fill="#32210b" fill-opacity="1"></use><g><use xlink:href="#a5lfzqRwZB" opacity="1" fill-opacity="0" stroke="#32210b" stroke-width="0" stroke-opacity="1"></use></g></g><g><use xlink:href="#h1u1Pcz7x6" opacity="1" fill="#1ce9e3" fill-opacity="1"></use><g><use xlink:href="#h1u1Pcz7x6" opacity="1" fill-opacity="0" stroke="#32210b" stroke-width="0" stroke-opacity="1"></use></g></g></g></g></svg>