<svg width="3316" height="974" viewBox="0 0 3316 974" fill="none" xmlns="http://www.w3.org/2000/svg">
<path d="M821.84 502.908C731.11 560.698 706.36 416.628 706.31 362.518C706.25 283.008 740.92 194.558 763.02 196.018C785.17 197.488 817.5 224.458 837.49 305.218C856.28 381.258 839.38 469.488 821.84 502.908Z" fill="#FFF3C2"/>
<path d="M821.84 502.908C731.11 560.698 706.36 416.628 706.31 362.518C706.25 283.008 740.92 194.558 763.02 196.018C785.17 197.488 817.5 224.458 837.49 305.218C856.28 381.258 839.38 469.488 821.84 502.908Z" fill="#FFF3C2"/>
<path d="M821.84 502.908C731.11 560.698 706.36 416.628 706.31 362.518C706.25 283.008 740.92 194.558 763.02 196.018C785.17 197.488 817.5 224.458 837.49 305.218C856.28 381.258 839.38 469.488 821.84 502.908Z" stroke="#32210B" stroke-width="30"/>
<path d="M781.97 624.018C769.68 632.468 708.53 626.448 681.72 582.738C654.85 538.978 595.92 504.368 605.78 495.918C615.64 487.528 665.2 525.548 692.06 569.258C718.93 613.018 794.27 615.568 781.97 624.018Z" fill="#32210B"/>
<path d="M781.97 624.018C769.68 632.468 708.53 626.448 681.72 582.738C654.85 538.978 595.92 504.368 605.78 495.918C615.64 487.528 665.2 525.548 692.06 569.258C718.93 613.018 794.27 615.568 781.97 624.018Z" stroke="#32210B" stroke-width="10"/>
<path d="M604.68 532.738C591.09 532.738 580 519.078 580 502.308C580 485.528 591.09 471.868 604.68 471.868C618.27 471.868 629.36 485.528 629.36 502.308C629.36 519.078 618.27 532.738 604.68 532.738Z" fill="#32210B"/>
<path d="M651.91 444.698C638.29 444.698 627.2 431.798 627.2 415.938C627.2 400.088 638.29 387.188 651.91 387.188C665.52 387.188 676.55 400.088 676.55 415.938C676.55 431.798 665.52 444.698 651.91 444.698Z" fill="#32210B"/>
<path d="M1095.19 433.688C1069.47 391.708 881.25 325.358 774.28 440.458C619.92 602.948 717.74 722.478 744.49 754.598C771.19 786.768 921.87 837.198 1032.91 709.918C1143.94 582.638 1120.92 475.658 1095.19 433.688Z" fill="#FFCC00"/>
<path d="M1095.19 433.688C1069.47 391.708 881.25 325.358 774.28 440.458C619.92 602.948 717.74 722.478 744.49 754.598C771.19 786.768 921.87 837.198 1032.91 709.918C1143.94 582.638 1120.92 475.658 1095.19 433.688Z" stroke="#32210B" stroke-width="2"/>
<path d="M1013.08 728.388C993.26 746.418 960.28 764.458 914.24 782.548C874.54 700.378 803.8 621.848 702.08 546.938C717.14 518.938 744.22 480.588 783.33 431.848C901.83 512.168 978.47 611.018 1013.08 728.388Z" fill="#E98F1C"/>
<path d="M1122.98 543.528C1119.08 576.028 1105.97 607.598 1083.71 638.308C1023.54 501.118 959.52 416.678 891.65 385.108C917.54 362.518 953.67 360.298 999.98 378.328C1046.29 396.368 1087.29 451.448 1122.98 543.528Z" fill="#E98F1C"/>
<path d="M1098.39 431.848C1072.66 389.868 884.45 323.518 777.48 438.618C623.11 601.108 718.91 719.628 747.69 752.758C776.46 785.888 925.07 835.358 1036.1 708.078C1147.14 580.788 1124.12 473.818 1098.39 431.848Z" stroke="#32210B" stroke-width="30"/>
<path d="M653.88 414.078C665.9 404.708 663.14 445.328 690 489.098C716.82 532.808 771.84 552.738 760.69 561.998C749.48 571.258 704.85 547.268 678.03 503.498C651.17 459.798 641.85 423.448 653.88 414.078Z" fill="#32210B"/>
<path d="M653.88 414.078C665.9 404.708 663.14 445.328 690 489.098C716.82 532.808 771.84 552.738 760.69 561.998C749.48 571.258 704.85 547.268 678.03 503.498C651.17 459.798 641.85 423.448 653.88 414.078Z" stroke="#32210B" stroke-width="10"/>
<path d="M859.86 625.688C869.44 608.628 865.27 584.148 838.63 596.338C811.98 608.528 796 657.648 800.28 664.748C803.15 669.458 812.57 647.628 828.82 638.368C837.16 633.658 856.61 631.488 859.86 625.688Z" fill="#32210B"/>
<path d="M859.86 625.688C869.44 608.628 865.27 584.148 838.63 596.338C811.98 608.528 796 657.648 800.28 664.748C803.15 669.458 812.57 647.628 828.82 638.368C837.16 633.658 856.61 631.488 859.86 625.688Z" stroke="#32210B" stroke-width="30"/>
<path d="M791.34 771.278C826.98 789.808 843.01 712.348 819.72 728.438C796.49 744.468 759.39 760.828 759.66 763.108C759.98 766.028 771.09 760.718 791.34 771.278Z" fill="#32210B"/>
<path d="M793.85 768.258C829.49 786.778 845.52 709.328 822.23 725.408C798.99 741.438 761.89 757.798 762.16 760.078C762.49 762.998 773.59 757.688 793.85 768.258Z" stroke="#32210B" stroke-width="30"/>
<path d="M1167.45 388.518C1164.9 383.478 1138.09 392.738 1087.02 416.248C1088.84 418.748 1097.96 431.258 1114.37 453.778C1151.49 413.588 1169.18 391.838 1167.45 388.518Z" fill="#32210B"/>
<path d="M1167.45 388.518C1164.9 383.478 1138.09 392.738 1087.02 416.248C1088.84 418.748 1097.96 431.258 1114.37 453.778C1151.49 413.588 1169.18 391.838 1167.45 388.518Z" stroke="#32210B" stroke-width="30"/>
<path d="M877.57 488.008C889.05 523.978 904.49 479.128 918.73 481.508C932.98 483.838 929.35 501.988 934.98 502.908C946.95 504.798 955.29 482.598 968.83 482.158C979.56 481.788 981.4 529.178 1005.39 492.078C1029.39 454.968 1050.84 420.738 1060.37 367.498C1074.4 289.238 1049.21 215.518 1022.45 210.858C999.33 206.858 929.4 264.428 895.55 340.418C863.7 412.018 866.14 452.048 877.57 488.008Z" fill="#FFF3C2"/>
<path d="M877.57 488.008C889.05 523.978 904.49 479.128 918.73 481.508C932.98 483.838 929.35 501.988 934.98 502.908C946.95 504.798 955.29 482.598 968.83 482.158C979.56 481.788 981.4 529.178 1005.39 492.078C1029.39 454.968 1050.84 420.738 1060.37 367.498C1074.4 289.238 1049.21 215.518 1022.45 210.858C999.33 206.858 929.4 264.428 895.55 340.418C863.7 412.018 866.14 452.048 877.57 488.008Z" fill="#FFF3C2"/>
<path d="M877.57 488.008C889.05 523.978 904.49 479.128 918.73 481.508C932.98 483.838 929.35 501.988 934.98 502.908C946.95 504.798 955.29 482.598 968.83 482.158C979.56 481.788 981.4 529.178 1005.39 492.078C1029.39 454.968 1050.84 420.738 1060.37 367.498C1074.4 289.238 1049.21 215.518 1022.45 210.858C999.33 206.858 929.4 264.428 895.55 340.418C863.7 412.018 866.14 452.048 877.57 488.008Z" stroke="#32210B" stroke-width="30"/>
<path d="M410.4 473.6C409.867 465.067 409.6 452.267 409.6 435.2V404.8C409.6 384.533 409.067 369.333 408 359.2C406.933 350.667 406.4 328.533 406.4 292.8C406.4 280 410.133 270.133 417.6 263.2C425.6 255.733 436.267 252 449.6 252C466.667 252 478.133 255.733 484 263.2C489.867 270.667 492.8 282.933 492.8 300V330.4L492 418.4C491.467 435.467 491.2 461.067 491.2 495.2L492 560.8C492.533 570.933 492.8 585.067 492.8 603.2C492.8 617.6 493.333 638.133 494.4 664.8C495.467 689.333 496 707.733 496 720C496 730.133 493.067 739.467 487.2 748C481.867 756.533 474.4 760.8 464.8 760.8C427.467 760.8 408.8 748.267 408.8 723.2C408.8 709.333 409.333 693.867 410.4 676.8C411.467 664.533 412 645.867 412 620.8C412 603.2 411.467 577.867 410.4 544.8C385.333 546.933 342.133 548 280.8 548C242.4 548 212.533 548 191.2 548C169.867 547.467 154.4 546.133 144.8 544L144 636C144 641.867 145.333 657.6 148 683.2C150.667 700.267 152 715.2 152 728C152 736 147.2 743.733 137.6 751.2C128.533 758.133 120 761.6 112 761.6C92.8 761.6 79.7333 757.067 72.8 748C65.8667 738.4 62.4 724 62.4 704.8L61.6 641.6C61.0667 634.133 60.8 623.733 60.8 610.4C60.8 590.667 60.2667 563.733 59.2 529.6C58.1333 498.667 57.6 476.267 57.6 462.4C57.6 441.6 58.1333 412.533 59.2 375.2C60.2667 340 60.8 313.867 60.8 296.8C60.8 279.733 65.0667 268.267 73.6 262.4C82.1333 256.533 91.7333 253.6 102.4 253.6C132.267 253.6 147.2 263.467 147.2 283.2C147.2 318.4 146.4 352 144.8 384C143.733 424.533 143.2 454.133 143.2 472.8C158.667 476.533 174.933 478.933 192 480C209.067 481.067 233.067 481.6 264 481.6C326.933 481.6 375.733 478.933 410.4 473.6Z" fill="#32210B"/>
<path d="M2389.46 718.968C2391.79 714.344 2391.78 708.889 2389.44 704.272C2384.84 695.219 2374.77 675.398 2370.17 666.34C2367.89 661.837 2363.26 659 2358.21 659C2347.6 659 2324 659 2313.38 659C2308.33 659 2303.69 661.825 2301.37 666.317C2296.7 675.378 2286.46 695.238 2281.78 704.296C2279.42 708.893 2279.4 714.344 2281.76 718.945C2286.44 728.084 2296.72 748.173 2301.4 757.312C2303.7 761.812 2308.33 764.641 2313.38 764.641C2323.99 764.641 2347.59 764.641 2358.2 764.641C2363.25 764.641 2367.87 761.797 2370.14 757.289C2374.75 748.154 2384.85 728.104 2389.46 718.968Z" fill="#1CE9E3"/>
<path d="M2389.46 718.968C2391.79 714.344 2391.78 708.889 2389.44 704.272C2384.84 695.219 2374.77 675.398 2370.17 666.34C2367.89 661.837 2363.26 659 2358.21 659C2347.6 659 2324 659 2313.38 659C2308.33 659 2303.69 661.825 2301.37 666.317C2296.7 675.378 2286.46 695.238 2281.78 704.296C2279.42 708.893 2279.4 714.344 2281.76 718.945C2286.44 728.084 2296.72 748.173 2301.4 757.312C2303.7 761.812 2308.33 764.641 2313.38 764.641C2323.99 764.641 2347.59 764.641 2358.2 764.641C2363.25 764.641 2367.87 761.797 2370.14 757.289C2374.75 748.154 2384.85 728.104 2389.46 718.968Z" stroke="#32210B" stroke-width="30"/>
<path d="M1594.4 503.6C1633.33 508.4 1662.13 520.933 1680.8 541.2C1700 560.933 1709.6 585.467 1709.6 614.8C1709.6 644.133 1698.67 671.867 1676.8 698C1655.47 724.133 1628 744.4 1594.4 758.8C1579.47 764.667 1559.73 768.933 1535.2 771.6C1511.2 774.267 1486.4 775.6 1460.8 775.6C1418.13 775.6 1374.4 771.6 1329.6 763.6C1321.6 762 1313.07 758 1304 751.6C1295.47 745.2 1291.2 735.867 1291.2 723.6C1290.67 674.533 1288.8 606.267 1285.6 518.8L1284.8 474.8C1282.67 406.533 1281.6 352.933 1281.6 314C1281.6 307.067 1285.6 299.067 1293.6 290C1302.13 280.4 1312.27 275.067 1324 274C1330.93 274 1337.6 273.733 1344 273.2C1404.27 267.333 1444.53 264.4 1464.8 264.4C1504.8 264.4 1540 268.4 1570.4 276.4C1601.33 283.867 1626.93 297.733 1647.2 318C1654.67 326.533 1660.8 337.467 1665.6 350.8C1670.4 363.6 1672.8 376.133 1672.8 388.4C1673.33 414.533 1666.4 438.533 1652 460.4C1638.13 482.267 1618.93 496.667 1594.4 503.6ZM1469.6 332.4C1451.47 332.4 1432.53 333.467 1412.8 335.6C1393.6 337.733 1377.33 340.4 1364 343.6L1368.8 494.8L1397.6 494C1444 489.2 1478.13 485.2 1500 482C1513.87 478.8 1527.47 472.667 1540.8 463.6C1554.13 454 1565.07 444.133 1573.6 434C1582.67 423.333 1587.2 415.333 1587.2 410C1587.2 402 1585.6 394 1582.4 386C1579.2 377.467 1575.73 371.333 1572 367.6C1557.6 353.733 1542.93 344.4 1528 339.6C1513.07 334.8 1493.6 332.4 1469.6 332.4ZM1371.2 705.2C1398.4 708.933 1424.27 710.8 1448.8 710.8C1502.67 710.8 1545.07 703.867 1576 690C1607.47 675.6 1623.2 648.4 1623.2 608.4C1623.2 592.4 1611.2 579.067 1587.2 568.4C1563.2 557.733 1537.33 552.4 1509.6 552.4C1490.93 552.4 1467.2 554.533 1438.4 558.8C1415.47 562 1393.07 564.133 1371.2 565.2C1372.27 597.2 1372.8 617.467 1372.8 626C1372.8 642.533 1372.53 655.067 1372 663.6L1371.2 705.2ZM2214.79 612.4C2214.79 642.267 2203.32 670.8 2180.39 698C2157.99 724.667 2129.45 745.733 2094.79 761.2C2079.85 766 2060.92 770 2037.99 773.2C2015.05 775.867 1991.85 777.467 1968.39 778C1922.52 778 1879.85 771.6 1840.39 758.8C1833.45 757.2 1825.45 752.667 1816.39 745.2C1807.32 737.733 1803.05 727.867 1803.59 715.6V688.4C1803.59 658.533 1802.79 629.733 1801.19 602C1800.12 565.733 1799.59 538 1799.59 518.8L1798.79 428.4C1798.79 396.4 1799.85 364.133 1801.99 331.6C1802.52 315.067 1808.65 301.2 1820.39 290C1832.65 278.267 1847.85 271.067 1865.99 268.4C1872.92 267.867 1885.45 267.6 1903.59 267.6L1980.39 268.4C2017.19 268.4 2049.99 273.2 2078.79 282.8C2107.59 292.4 2132.39 307.867 2153.19 329.2C2160.12 337.2 2165.72 347.867 2169.99 361.2C2174.25 374 2176.39 386.533 2176.39 398.8C2174.79 442 2149.99 477.2 2101.99 504.4C2140.39 509.2 2168.65 521.2 2186.79 540.4C2205.45 559.6 2214.79 583.6 2214.79 612.4ZM1912.39 485.2C1917.72 484.667 1926.25 484.4 1937.99 484.4H1973.99C1989.99 484.4 2001.19 483.867 2007.59 482.8C2061.99 470.533 2089.19 448.933 2089.19 418C2089.19 410 2087.85 401.467 2085.19 392.4C2083.05 383.333 2080.12 376.933 2076.39 373.2C2062.52 359.867 2049.45 351.333 2037.19 347.6C2024.92 343.333 2006.79 341.2 1982.79 341.2C1936.39 341.2 1903.05 343.6 1882.79 348.4L1883.59 486L1912.39 485.2ZM1949.19 710.8C2004.65 710.8 2048.12 703.867 2079.59 690C2111.59 676.133 2127.59 648.933 2127.59 608.4C2127.59 592.4 2115.85 579.333 2092.39 569.2C2068.92 558.533 2043.32 553.2 2015.59 553.2C1981.45 553.2 1957.45 554 1943.59 555.6C1931.85 556.667 1923.85 557.2 1919.59 557.2C1911.59 557.2 1905.99 556.933 1902.79 556.4C1900.12 556.4 1896.92 556.4 1893.19 556.4C1889.99 555.867 1886.52 555.867 1882.79 556.4L1883.59 582.8C1884.12 589.2 1884.92 606.8 1885.99 635.6C1887.59 663.867 1887.85 683.867 1886.79 695.6C1899.05 700.933 1909.72 704.933 1918.79 707.6C1927.85 709.733 1937.99 710.8 1949.19 710.8ZM2811.94 665.2C2822.08 665.2 2829.54 669.2 2834.34 677.2C2839.68 684.667 2842.34 692.933 2842.34 702C2842.34 713.2 2840.48 721.2 2836.74 726C2833.54 730.267 2827.14 734.8 2817.54 739.6C2795.14 750.267 2767.41 758.8 2734.34 765.2C2701.28 771.6 2665.81 774.8 2627.94 774.8C2580.48 774.8 2545.54 766.8 2523.14 750.8C2501.28 734.8 2487.68 715.6 2482.34 693.2C2477.54 670.267 2475.14 640.4 2475.14 603.6C2475.14 564.133 2476.74 525.467 2479.94 487.6C2483.14 449.2 2488.74 400.4 2496.74 341.2C2500.48 315.6 2510.61 297.2 2527.14 286C2543.68 274.267 2561.81 268.4 2581.54 268.4C2598.08 268.4 2625.01 267.867 2662.34 266.8L2731.94 266C2760.74 266 2781.54 266.8 2794.34 268.4C2810.34 271.6 2822.08 275.333 2829.54 279.6C2837.54 283.333 2841.54 290 2841.54 299.6C2841.54 310.267 2837.81 320.667 2830.34 330.8C2823.41 340.933 2812.74 346 2798.34 346C2781.81 346 2758.08 344.933 2727.14 342.8C2696.21 340.667 2673.01 339.6 2657.54 339.6C2644.21 339.6 2631.14 340.4 2618.34 342C2603.41 343.067 2592.74 344.933 2586.34 347.6C2579.94 350.267 2576.21 354.8 2575.14 361.2C2567.68 416.133 2563.94 456.667 2563.94 482.8C2576.21 484.4 2588.21 485.2 2599.94 485.2C2614.88 485.2 2630.88 484.4 2647.94 482.8C2665.01 481.2 2675.94 480.133 2680.74 479.6C2709.01 476.933 2733.28 475.6 2753.54 475.6C2765.28 475.6 2774.08 477.733 2779.94 482C2786.34 486.267 2789.54 492.133 2789.54 499.6C2789.54 511.333 2786.34 520.4 2779.94 526.8C2774.08 533.2 2763.41 538 2747.94 541.2C2729.28 544.933 2706.08 547.867 2678.34 550C2651.14 552.133 2624.48 553.2 2598.34 553.2C2589.28 553.2 2576.74 552.667 2560.74 551.6C2559.14 584.133 2558.34 614.267 2558.34 642C2558.34 679.867 2583.41 698.8 2633.54 698.8C2660.21 698.8 2682.34 696.933 2699.94 693.2C2717.54 689.467 2737.81 684.133 2760.74 677.2C2782.08 669.2 2799.14 665.2 2811.94 665.2ZM3289.35 722.8C3289.88 734 3288.55 742 3285.35 746.8C3282.15 751.067 3275.75 755.6 3266.15 760.4C3251.75 767.333 3234.68 771.867 3214.95 774C3195.75 776.133 3170.95 777.2 3140.55 777.2H3086.15C3038.68 777.2 3003.48 769.2 2980.55 753.2C2957.62 736.667 2943.22 716.933 2937.35 694C2931.48 671.067 2928.02 641.467 2926.95 605.2C2926.42 592.933 2926.15 574.8 2926.15 550.8C2926.15 498.533 2930.68 428.667 2939.75 341.2C2942.42 315.6 2951.75 297.2 2967.75 286C2983.75 274.267 3001.88 268.4 3022.15 268.4C3038.68 268.4 3065.62 267.867 3102.95 266.8L3173.35 266C3202.15 266 3222.95 266.8 3235.75 268.4C3251.75 271.6 3263.75 275.333 3271.75 279.6C3279.75 283.333 3284.02 290 3284.55 299.6C3284.55 310.267 3281.08 320.667 3274.15 330.8C3267.22 340.933 3256.55 346 3242.15 346C3225.62 346 3201.88 344.933 3170.95 342.8C3140.02 340.667 3116.55 339.6 3100.55 339.6C3086.15 339.6 3073.08 340.4 3061.35 342C3046.42 343.067 3035.75 344.933 3029.35 347.6C3022.95 350.267 3019.48 354.8 3018.95 361.2C3013.08 419.333 3010.68 459.867 3011.75 482.8C3024.02 484.4 3036.28 485.2 3048.55 485.2C3060.82 485.2 3077.62 484.133 3098.95 482C3104.28 481.467 3110.95 480.933 3118.95 480.4C3126.95 479.867 3136.02 479.6 3146.15 479.6C3152.02 479.6 3161.35 480.133 3174.15 481.2L3198.95 482C3223.48 482 3235.75 490.8 3235.75 508.4C3235.75 519.067 3232.82 527.6 3226.95 534C3221.08 540.4 3210.68 545.2 3195.75 548.4C3175.48 552.133 3142.68 554 3097.35 554H3048.55C3038.42 554 3025.88 553.467 3010.95 552.4C3010.42 562 3010.15 575.867 3010.15 594C3010.15 617.467 3010.42 634 3010.95 643.6C3012.55 680.933 3038.42 699.6 3088.55 699.6C3105.62 699.6 3123.75 700.133 3142.95 701.2L3172.55 702C3186.42 702 3197.88 700.667 3206.95 698C3216.02 694.8 3224.82 692.133 3233.35 690C3242.42 687.333 3250.68 686 3258.15 686C3268.28 686 3276.02 690 3281.35 698C3286.68 705.467 3289.35 713.733 3289.35 722.8Z" fill="#32210B"/>
</svg>
